<svg width="19" height="15" viewBox="0 0 19 15" xmlns="http://www.w3.org/2000/svg">
    <title>Twitter</title>
    <path d="M16.516 3.722c.008.162.01.326.01.488 0 4.99-3.796 10.742-10.74 10.742-2.132 0-4.115-.625-5.786-1.697.296.035.596.053.9.053 1.77 0 3.397-.604 4.688-1.615-1.65-.03-3.046-1.12-3.526-2.62.23.042.467.065.71.065.345 0 .68-.045.995-.13C2.04 8.657.74 7.133.74 5.303v-.047c.508.283 1.09.453 1.71.473C1.435 5.052.77 3.898.77 2.587c0-.69.185-1.34.51-1.898 1.862 2.284 4.645 3.786 7.782 3.944-.064-.277-.097-.564-.097-.86C8.965 1.688 10.655 0 12.74 0c1.085 0 2.066.457 2.755 1.19.86-.17 1.667-.483 2.397-.915-.282.88-.88 1.62-1.66 2.088.764-.092 1.49-.293 2.168-.594-.506.757-1.146 1.42-1.884 1.952z" fill="#000" fill-rule="evenodd"></path>
</svg>
